<svg xmlns="http://www.w3.org/2000/svg" viewBox="0 0 100 100" width="100%" height="100%">
  <defs>
    <linearGradient id="logoGrad" x1="0%" y1="100%" x2="100%" y2="0%">
      <stop offset="0%" stop-color="#143A7C" />
      <stop offset="50%" stop-color="#49339E" />
      <stop offset="100%" stop-color="#7B2CBF" />
    </linearGradient>
  </defs>

  <path d="M45,20 L20,35 L20,65 L45,80 L60,70" fill="none" stroke="url(#logoGrad)" stroke-width="6" stroke-linejoin="round" />
  <path d="M45,32 L30,41 L30,59 L45,68 L53,63" fill="none" stroke="url(#logoGrad)" stroke-width="4" stroke-linejoin="round" />

  <path d="M30,95 L65,30" fill="none" stroke="url(#logoGrad)" stroke-width="5" stroke-linecap="round" />
  <path d="M42,95 L80,25" fill="none" stroke="url(#logoGrad)" stroke-width="5" stroke-linecap="round" />

  <line x1="33" y1="88" x2="45" y2="88" stroke="url(#logoGrad)" stroke-width="4" stroke-linecap="round" />
  <line x1="38" y1="78" x2="50" y2="78" stroke="url(#logoGrad)" stroke-width="4" stroke-linecap="round" />
  <line x1="43" y1="68" x2="56" y2="68" stroke="url(#logoGrad)" stroke-width="4" stroke-linecap="round" />

  <path d="M68,45 C85,35 90,25 90,25 C90,25 85,45 60,55" fill="none" stroke="url(#logoGrad)" stroke-width="4" stroke-linecap="round" />
  <path d="M55,65 C75,55 85,45 85,45 C85,45 80,60 50,70" fill="none" stroke="url(#logoGrad)" stroke-width="4" stroke-linecap="round" />

  <circle cx="20" cy="35" r="2.5" fill="url(#logoGrad)" />
  <circle cx="20" cy="65" r="2.5" fill="url(#logoGrad)" />
  <circle cx="45" cy="32" r="2" fill="url(#logoGrad)" />
  <circle cx="85" cy="45" r="2" fill="url(#logoGrad)" />
  <circle cx="90" cy="25" r="2" fill="url(#logoGrad)" />
</svg>
